<svg viewBox="0 0 1500 1500" xmlns="http://www.w3.org/2000/svg" id="basin14">
  <a xlink:href="" class="map-highlight">
    <polygon points="419.0,574.3 419.5,574.1 420.3,573.9 420.8,573.8 421.4,574.0 422.4,574.5 423.2,574.7 424.8,574.7 425.8,574.4 426.5,574.4 426.7,574.3 427.3,573.7 427.7,573.4 428.6,572.9 429.4,572.6 430.1,572.5 430.9,572.4 432.4,572.0 433.4,571.5 434.6,571.0 435.5,570.8 436.3,570.8 437.1,570.7 437.8,570.8 438.2,571.0 439.3,571.3 439.8,571.1 440.5,570.2 441.0,569.9 441.4,570.0 441.8,570.2 442.3,570.5 443.0,570.2 443.5,570.3 444.5,570.8 445.7,571.5 445.8,571.3 446.0,570.5 446.2,569.4 446.6,568.3 446.7,568.3 447.2,569.1 447.3,569.5 447.7,570.0 447.8,570.4 448.1,570.6 448.2,570.7 448.4,571.4 448.3,572.0 448.2,572.3 448.3,572.6 448.4,573.2 448.3,573.4 448.1,573.5 447.9,573.6 447.8,573.6 447.7,573.7 447.6,573.6 447.4,573.6 447.1,573.6 446.7,573.4 446.4,573.2 446.0,573.0 445.8,573.0 445.3,572.8 444.7,572.6 444.5,572.5 444.0,572.4 443.6,572.3 443.3,572.3 443.2,572.5 443.0,572.5 442.6,572.5 442.4,572.4 442.2,572.4 441.9,572.3 441.6,572.5 441.4,572.7 440.6,573.1 440.1,573.3 440.0,573.5 439.9,573.9 440.0,574.0 440.1,574.1 440.2,574.3 440.5,574.5 440.7,574.7 440.8,574.8 441.1,574.9 441.9,574.9 442.4,574.8 442.8,574.7 443.2,574.8 444.1,575.2 444.3,575.3 444.7,575.4 444.9,575.7 445.1,575.9 445.1,575.9 445.0,576.2 444.8,576.5 444.8,576.8 444.6,576.9 444.0,577.3 443.6,577.5 443.4,577.7 443.4,578.0 443.5,578.1 444.0,578.3 444.3,578.4 444.3,578.4 444.4,578.6 444.4,579.7 444.3,580.7 444.2,581.1 444.2,581.3 444.4,581.6 444.6,581.8 444.9,581.8 445.1,581.8 445.3,581.7 445.8,580.6 445.9,579.5 446.1,578.2 446.6,577.8 447.1,577.7 447.6,577.7 447.6,577.7 447.8,577.8 447.9,577.9 448.0,578.0 448.2,578.0 448.3,578.0 448.4,578.0 448.6,577.9 448.7,577.8 448.9,577.7 449.1,577.7 449.3,577.8 449.5,577.9 449.7,577.9 449.8,577.9 449.8,578.1 449.8,578.3 449.8,578.5 449.7,579.6 449.5,580.0 449.3,580.2 449.1,580.2 449.0,580.2 449.0,580.3 448.9,580.8 449.0,581.2 448.9,582.1 448.7,582.6 448.5,583.2 448.4,583.7 448.3,584.2 448.4,584.6 448.6,584.8 448.9,585.4 449.3,586.3 449.6,586.6 449.7,586.8 449.9,586.7 450.1,586.8 450.2,586.9 450.4,587.1 450.6,587.1 450.8,587.0 450.8,586.8 450.9,586.0 451.0,585.6 451.3,585.4 451.4,585.3 451.5,585.1 451.4,584.9 451.4,584.8 451.3,584.2 451.4,583.8 451.7,583.1 452.0,582.9 452.4,582.4 452.4,582.1 452.6,581.8 452.9,581.1 453.4,580.6 453.6,580.4 453.8,580.2 453.9,580.2 453.9,580.2 454.1,580.3 454.4,580.9 455.0,582.2 456.3,585.4 456.8,586.6 457.1,587.8 457.3,588.8 457.4,589.5 457.4,589.7 457.5,590.3 457.6,590.9 457.6,591.2 457.7,591.6 457.7,592.2 457.9,593.3 457.8,594.0 457.6,594.9 457.5,595.8 457.3,596.2 457.2,596.3 457.2,596.5 457.4,596.9 457.6,597.0 458.0,597.2 458.1,597.4 458.6,597.8 458.8,598.4 459.0,599.8 459.1,599.9 459.2,600.7 459.2,601.4 459.5,602.2 459.5,602.8 459.5,603.1 459.5,603.4 459.4,603.7 459.2,604.1 459.2,604.7 459.3,606.2 459.3,607.1 459.4,607.2 459.3,607.9 459.4,608.0 459.3,608.4 459.2,608.6 459.2,608.9 459.2,609.2 459.2,609.3 458.9,609.8 458.7,611.0 458.8,611.9 458.7,612.0 458.6,612.3 458.8,612.6 458.8,612.6 458.9,613.2 459.0,613.3 459.1,613.3 459.3,613.3 459.4,613.2 459.4,613.2 459.4,613.3 459.3,613.5 459.2,614.0 459.2,614.2 459.4,614.5 459.4,614.7 459.6,614.8 459.7,614.8 459.8,614.8 459.9,614.8 460.0,614.6 460.2,614.2 460.3,614.0 460.3,613.3 460.4,613.9 460.4,615.0 460.4,615.0 460.5,615.4 460.5,616.0 460.4,616.5 460.2,617.3 460.0,617.8 459.9,618.2 459.8,618.6 459.6,618.7 459.4,619.0 459.3,619.1 459.2,620.2 459.2,620.7 459.2,621.1 459.4,621.3 459.3,622.1 459.3,622.3 459.4,622.5 459.4,622.8 459.6,622.8 459.7,622.8 459.8,622.9 459.8,623.1 459.9,623.3 460.0,623.5 460.0,623.7 460.2,624.6 460.4,624.9 461.0,625.4 461.1,625.6 461.2,625.6 461.4,625.6 461.4,625.6 461.5,625.5 461.5,625.4 461.6,625.4 461.7,625.2 461.8,625.1 462.0,625.1 462.6,625.0 462.9,625.0 463.1,625.1 463.2,625.3 463.3,625.4 463.6,625.4 463.6,625.5 463.6,625.7 463.6,625.9 464.0,626.2 464.2,626.3 464.4,626.3 464.6,626.2 464.6,626.1 464.7,626.1 464.7,626.0 465.0,626.1 465.0,626.3 465.0,626.5 465.1,626.6 465.1,626.7 465.3,626.8 465.3,627.1 465.3,627.1 465.6,627.1 465.5,627.3 465.5,627.5 465.4,627.9 465.5,628.3 465.7,628.7 465.8,629.0 465.9,629.0 466.1,629.0 466.2,628.9 466.3,628.8 466.3,628.7 466.3,628.7 466.3,628.6 466.2,628.4 466.3,628.3 466.4,628.3 466.6,628.6 466.5,629.2 466.4,629.6 466.2,630.2 465.8,631.2 465.7,631.5 465.6,631.8 465.6,632.6 465.1,633.6 464.8,634.4 464.6,634.8 464.3,634.9 463.9,635.3 463.6,635.8 463.4,636.0 463.3,635.9 463.2,635.9 462.9,635.7 462.6,635.6 462.5,635.7 462.4,636.1 462.2,636.4 462.3,636.8 462.3,636.9 462.6,637.2 462.6,637.5 462.5,637.7 462.4,637.7 462.3,637.7 462.2,637.7 462.1,637.8 462.0,637.9 461.9,638.0 462.1,638.2 462.3,638.2 462.3,638.3 462.3,638.4 462.1,638.5 462.1,638.5 462.0,638.5 461.9,638.4 461.8,638.4 461.5,638.6 461.2,639.0 461.1,639.2 461.1,639.4 461.2,639.6 461.2,639.8 461.2,640.2 460.4,640.7 460.3,640.9 460.2,641.1 460.2,641.2 460.3,641.3 460.5,641.3 460.6,641.3 460.7,641.2 460.9,641.2 460.9,641.3 460.8,641.5 460.8,641.7 460.9,641.9 460.9,642.1 460.7,642.5 460.6,642.7 460.4,643.0 460.2,643.3 459.7,644.2 459.4,644.8 459.5,645.0 460.4,644.9 460.5,645.1 460.4,645.2 460.2,645.3 460.0,645.3 459.6,645.9 459.6,646.1 459.3,646.8 459.2,647.2 458.9,647.4 458.1,648.1 457.7,648.5 457.3,648.8 456.9,648.9 456.8,649.1 456.2,649.6 456.0,649.7 456.0,649.9 456.1,650.1 456.1,650.2 456.1,650.4 455.3,651.2 455.4,651.3 455.6,651.4 455.8,651.4 455.9,651.6 456.0,651.8 455.5,652.4 455.2,652.7 455.1,653.0 455.2,653.2 455.8,653.2 455.9,653.1 456.1,652.9 456.2,652.9 456.3,653.5 456.7,653.6 457.0,654.1 457.0,654.5 455.8,654.8 455.1,654.6 454.8,654.7 454.4,654.8 454.0,655.0 453.8,655.3 453.7,655.6 453.7,655.8 453.8,656.1 454.0,656.3 454.0,656.5 453.9,656.8 453.6,657.2 453.2,657.4 452.6,657.9 452.2,658.0 451.9,658.1 451.2,658.3 450.5,658.4 449.9,658.4 448.4,659.0 447.4,659.3 446.5,659.7 446.3,659.8 446.0,660.1 445.6,660.2 444.9,660.1 444.0,659.5 442.9,659.0 442.2,658.9 441.0,658.9 439.8,659.1 439.2,659.3 438.8,659.6 438.7,659.7 437.9,660.1 437.0,660.5 436.9,660.6 436.7,661.0 436.7,661.3 436.4,661.5 436.4,661.8 436.5,662.2 436.6,662.2 436.9,662.3 437.2,662.7 437.5,662.8 437.9,662.8 438.3,662.6 438.8,662.6 439.2,662.7 439.4,662.6 439.4,662.5 439.5,662.5 439.6,662.4 439.7,662.3 439.9,662.1 440.0,662.1 440.4,662.2 440.7,662.3 440.9,662.3 441.1,662.4 441.3,662.8 441.3,663.3 441.2,663.5 441.4,663.8 442.0,664.2 442.4,664.5 442.5,664.7 442.6,665.0 442.7,665.1 443.0,665.6 443.1,665.8 443.4,665.8 443.7,665.9 444.0,666.1 444.3,666.2 444.4,666.3 444.6,666.3 444.7,666.3 445.0,666.2 445.8,665.2 446.3,664.7 446.7,664.5 447.0,664.6 447.2,664.6 447.3,664.6 447.5,664.6 447.9,663.8 448.2,663.5 448.5,663.4 448.7,663.4 448.9,663.5 449.3,663.7 449.6,663.6 450.0,663.5 450.3,663.3 450.4,663.1 450.6,663.0 450.8,662.9 451.0,663.0 451.1,663.1 451.4,663.2 452.1,663.2 453.0,663.3 453.6,663.2 453.9,663.1 455.2,663.1 455.6,663.3 455.9,663.4 456.2,663.4 456.4,663.4 456.6,663.3 457.0,663.2 457.5,663.0 459.0,662.5 460.5,662.1 460.9,662.0 461.3,661.9 461.6,661.8 461.9,661.7 462.1,661.6 462.2,661.5 462.5,661.4 463.0,661.5 463.3,661.5 463.3,661.5 463.2,661.6 463.1,661.6 462.6,661.7 462.3,661.7 462.0,661.8 461.8,662.0 461.6,662.2 461.5,662.8 461.5,663.0 461.6,663.1 461.8,663.1 462.0,663.1 462.6,662.9 463.0,662.5 463.2,662.4 464.2,662.2 464.7,662.0 465.0,661.5 465.8,660.9 467.1,660.4 469.1,660.3 469.7,660.2 470.5,660.1 470.8,660.0 470.9,660.1 471.1,660.3 471.2,660.4 471.7,660.5 472.1,660.4 472.8,660.7 473.1,660.7 473.5,660.9 473.8,660.9 474.5,660.8 474.7,660.4 474.6,660.1 474.5,659.7 474.0,659.4 473.8,659.3 472.9,659.3 472.6,659.2 472.5,659.1 472.4,659.0 472.5,658.9 472.8,658.9 473.1,658.9 473.3,658.9 473.8,658.7 474.3,658.2 474.5,658.0 474.6,657.7 475.0,657.1 475.1,656.9 475.0,656.8 474.7,656.1 474.5,655.4 474.5,655.2 474.7,654.9 475.1,653.8 475.2,653.6 475.7,652.6 476.1,652.0 477.2,650.1 477.7,649.4 479.3,647.3 480.0,646.4 480.3,646.0 480.5,645.8 480.6,645.6 480.7,645.5 480.9,645.5 480.9,645.6 480.9,645.7 481.0,645.7 481.3,645.6 481.7,645.6 481.8,645.6 482.6,645.9 483.3,646.3 485.0,648.0 486.1,649.3 486.6,649.8 487.6,650.8 488.0,651.2 488.1,651.3 488.5,651.5 488.7,651.4 488.8,651.4 489.0,651.5 489.4,651.9 489.4,652.2 489.5,652.3 489.5,652.4 489.3,652.6 489.4,652.8 489.5,652.9 489.8,653.0 490.1,653.1 490.2,653.4 490.5,654.5 490.6,655.4 490.5,655.9 490.3,656.8 490.3,656.9 490.3,657.0 490.3,657.2 490.0,657.6 489.9,657.9 489.7,658.3 489.8,658.6 490.2,658.9 490.9,659.4 491.3,659.5 491.3,659.6 491.2,659.7 490.7,659.6 489.6,659.7 489.1,660.0 488.7,660.5 488.4,660.7 487.7,661.2 487.2,662.0 486.1,663.3 485.1,664.5 484.4,665.4 483.9,666.0 483.7,667.0 483.2,668.3 482.7,669.0 482.2,669.3 482.1,669.6 481.9,670.3 481.8,671.0 481.5,671.7 481.6,672.1 481.7,672.2 481.5,672.4 481.5,672.5 481.3,673.0 481.0,673.5 480.7,674.0 480.6,674.0 480.3,674.5 479.8,674.9 479.5,675.0 479.3,675.1 479.1,675.2 479.0,675.2 479.0,675.3 478.8,675.5 478.7,675.5 478.7,675.5 478.6,675.4 478.4,675.4 478.2,675.7 478.1,676.1 478.1,676.6 478.1,677.0 477.7,678.2 477.5,678.8 477.3,679.0 477.0,679.5 477.0,680.0 476.9,680.2 476.7,680.6 476.4,680.8 475.6,681.4 475.4,681.8 474.9,682.2 474.8,682.4 474.8,682.5 474.9,682.9 475.1,682.9 475.3,682.9 475.7,683.0 476.1,683.5 476.4,683.7 476.6,684.1 476.8,684.4 476.9,684.5 477.0,684.5 477.6,684.3 478.0,684.1 478.2,684.1 478.4,684.2 478.4,684.4 478.4,684.7 478.1,684.9 477.9,685.0 477.6,685.2 477.4,685.4 476.8,686.1 476.6,686.5 476.5,686.9 476.7,687.2 476.8,687.3 477.0,687.4 477.3,687.4 477.7,687.2 478.0,687.0 479.1,685.9 479.3,685.8 481.1,684.2 482.1,683.1 482.3,682.7 483.0,681.9 483.5,681.3 485.3,678.8 485.5,678.6 486.3,677.1 487.2,676.2 488.3,674.7 489.4,673.3 490.9,671.9 491.5,671.6 492.0,671.6 492.0,671.5 492.3,671.2 493.1,670.9 493.9,670.8 494.7,671.0 495.1,671.1 495.3,671.2 496.3,671.2 496.7,671.0 496.9,670.9 497.1,671.0 497.7,671.2 498.7,672.1 499.5,673.4 499.7,673.5 500.0,673.6 500.1,673.9 500.5,676.7 500.9,678.1 501.0,679.8 501.0,681.5 500.6,683.2 500.3,684.4 500.1,684.9 499.5,685.7 499.0,685.9 497.3,687.8 495.9,689.0 494.0,690.2 492.5,691.3 491.4,691.9 489.2,693.0 487.7,693.6 486.6,694.1 485.9,694.4 486.0,694.7 486.3,694.9 486.8,695.0 487.1,695.3 487.5,695.5 488.6,695.7 489.3,695.6 489.8,695.4 490.0,695.3 490.2,695.4 490.4,695.7 490.4,695.9 490.5,696.0 489.1,696.4 488.0,696.8 487.6,696.8 487.4,696.9 487.1,697.3 487.1,697.6 486.6,698.1 486.6,698.3 486.8,699.0 487.6,699.2 488.3,699.2 489.7,699.3 491.2,699.0 492.3,698.8 493.6,698.3 494.2,698.2 494.6,698.3 495.1,698.3 496.0,697.7 496.8,697.3 497.4,697.2 498.2,697.0 498.2,697.0 498.6,696.8 499.3,696.2 499.6,696.0 499.6,695.8 499.6,695.7 499.8,695.8 500.2,695.7 500.4,695.6 500.6,695.4 501.4,694.7 501.5,694.6 502.0,694.1 502.4,693.6 502.5,693.2 502.9,692.7 503.5,692.3 503.8,692.1 504.1,691.9 504.6,691.8 506.4,690.9 506.8,690.5 506.9,690.3 507.0,690.1 507.2,689.9 507.3,689.9 507.4,690.0 507.7,690.4 507.7,690.5 508.4,690.7 509.4,690.9 510.7,690.9 512.6,690.9 513.1,690.8 514.2,690.0 515.0,689.8 515.8,689.7 515.9,689.6 516.0,689.5 516.0,689.4 515.8,689.1 515.7,688.7 515.3,688.4 514.6,688.1 514.2,687.9 513.6,687.9 513.2,688.1 512.2,688.2 511.2,688.0 509.9,687.7 509.5,687.6 509.1,687.4 508.8,686.9 508.7,686.7 508.6,686.2 508.6,685.5 508.9,684.1 509.1,683.4 509.2,682.5 509.6,681.4 509.9,680.0 510.6,677.4 510.9,676.2 511.4,674.4 512.0,673.4 512.4,672.9 513.1,672.2 512.9,672.1 513.0,671.9 514.2,671.5 514.7,671.3 515.4,671.1 516.5,670.9 517.6,671.0 518.7,671.0 520.1,671.4 521.3,671.9 523.9,673.2 524.1,673.5 524.4,673.6 524.6,673.7 525.6,674.4 526.5,675.3 527.0,676.5 527.2,677.0 527.5,678.2 527.5,680.3 527.4,681.7 526.8,682.8 526.6,683.1 526.4,683.7 525.8,684.5 525.6,684.7 525.3,685.3 525.1,685.8 524.9,686.6 524.9,686.9 525.1,687.1 525.2,687.1 525.6,686.9 525.9,686.4 526.5,685.9 527.0,685.6 527.4,685.6 528.1,685.3 528.4,685.1 528.6,684.8 528.8,684.6 528.8,684.5 529.1,684.2 529.8,683.1 530.2,682.6 530.4,681.9 530.5,681.6 530.5,681.0 530.8,680.4 530.9,680.1 530.8,679.7 530.9,679.3 530.9,679.0 530.9,678.5 530.8,678.1 530.7,677.9 530.7,677.3 530.6,677.1 530.5,676.9 530.4,676.4 530.4,675.7 530.4,675.5 530.4,675.4 530.3,675.1 530.3,675.0 530.5,675.0 530.6,675.1 531.1,675.3 531.6,675.6 531.8,675.8 532.0,675.8 532.2,675.7 532.6,675.5 533.4,675.4 534.7,675.3 535.1,675.2 535.9,674.9 536.4,674.8 537.2,674.8 537.4,674.7 538.5,674.4 539.0,674.4 539.3,674.4 539.5,674.4 539.8,674.3 540.1,674.6 540.2,674.8 540.0,675.0 539.8,675.2 539.7,675.3 539.5,675.3 539.3,675.3 538.8,675.3 538.5,675.4 538.4,675.4 538.0,675.3 537.6,675.4 537.1,675.6 536.3,675.6 535.7,675.7 535.0,676.1 534.5,676.2 534.1,676.5 534.1,676.6 534.2,676.7 534.8,676.9 535.3,677.2 535.6,677.5 536.0,677.7 536.1,677.7 536.3,677.6 536.5,677.5 536.7,677.4 537.1,677.4 537.4,677.3 537.8,677.1 537.8,677.1 538.0,677.1 538.6,677.0 538.8,677.0 538.9,677.0 539.6,676.5 539.9,676.4 540.1,676.2 540.3,676.2 540.5,676.0 540.7,676.0 540.9,676.0 541.3,676.2 541.4,676.2 541.7,676.2 542.1,676.2 542.5,676.3 542.9,676.3 543.9,675.9 544.2,675.7 544.8,675.4 545.4,674.8 545.5,674.7 545.8,674.2 545.9,674.2 546.1,674.2 546.1,674.3 546.1,674.4 545.8,674.7 545.7,674.9 545.8,675.1 545.9,675.3 545.8,675.5 545.8,675.8 545.9,676.2 546.0,676.6 546.2,677.1 546.6,677.2 546.9,677.1 547.9,676.6 548.0,676.2 548.2,676.0 548.4,675.7 548.8,674.9 548.9,674.2 548.7,674.0 548.4,673.6 548.0,673.2 548.0,673.0 548.2,672.8 548.1,672.3 547.8,671.9 547.6,671.7 547.7,671.6 548.3,671.4 548.5,671.1 548.7,670.9 549.3,670.7 549.6,670.4 549.8,670.1 550.6,669.8 551.5,669.1 551.9,668.9 552.1,668.6 552.3,668.4 552.7,667.8 552.7,667.7 552.7,667.3 552.5,667.1 552.2,666.9 551.7,666.9 551.4,666.9 551.1,666.9 550.4,666.5 550.1,666.3 549.5,666.1 548.9,665.8 548.6,665.4 548.5,665.1 548.6,664.9 548.6,664.8 548.8,664.5 548.7,663.7 548.8,663.3 548.7,662.9 548.8,662.7 548.9,662.0 548.5,661.6 548.3,661.0 548.1,660.7 547.5,660.4 547.2,660.2 547.1,660.0 547.1,659.9 547.1,659.6 547.6,659.0 548.0,658.6 548.2,658.3 548.5,658.2 548.9,658.2 550.0,658.6 551.3,659.0 552.0,659.2 552.4,659.1 552.9,659.3 553.3,659.5 553.6,659.4 553.8,659.2 554.0,659.1 554.5,658.7 554.8,658.5 554.9,658.3 555.1,657.7 554.9,657.3 554.7,657.0 554.7,656.9 554.8,656.9 555.0,656.9 555.1,656.7 555.1,656.7 555.1,656.6 555.0,656.6 554.8,656.6 554.8,656.5 555.2,656.3 556.0,655.8 556.1,655.8 556.9,655.6 557.2,655.5 557.9,654.8 558.2,654.2 558.5,653.9 559.0,653.9 559.2,653.9 559.6,653.9 559.8,653.9 560.6,653.5 561.0,653.1 561.9,652.9 562.9,652.4 563.6,651.9 564.6,651.5 565.3,651.1 565.5,651.0 566.3,650.6 567.8,649.7 568.6,649.0 570.5,647.8 571.4,646.9 571.6,646.6 571.8,646.4 571.9,646.2 572.8,645.6 573.5,645.2 574.5,644.8 575.3,644.5 575.5,644.4 575.8,644.1 576.1,642.8 576.3,642.1 576.8,641.4 577.5,640.7 577.8,640.4 578.3,640.3 579.4,640.6 580.2,640.9 580.6,641.6 580.6,642.3 580.3,643.0 580.2,643.4 579.6,644.2 579.2,645.2 579.1,645.7 578.9,645.6 578.8,645.4 578.5,645.5 577.9,646.4 577.4,647.3 577.2,647.5 576.9,648.1 576.5,648.9 576.6,650.0 576.9,650.4 577.2,650.5 577.6,650.8 577.9,651.0 578.1,651.1 578.5,651.2 578.6,651.2 578.9,650.7 579.2,650.5 579.2,650.3 579.2,650.1 579.3,650.0 579.3,649.8 579.2,649.6 579.2,648.7 579.4,647.8 579.3,647.5 579.4,646.9 579.3,646.8 579.2,646.5 579.3,646.1 579.4,646.1 579.9,646.3 580.4,646.4 580.8,646.5 581.3,646.6 581.6,646.8 581.8,647.2 581.8,648.3 581.8,649.1 581.7,649.8 581.6,650.1 581.2,651.1 580.6,652.0 580.1,652.3 579.4,652.7 579.2,652.8 578.7,653.3 578.7,653.5 578.7,653.8 579.0,654.7 579.1,654.8 579.4,654.9 580.2,655.3 580.4,655.2 581.0,654.5 581.5,654.2 582.0,653.8 582.5,653.6 582.8,653.2 583.0,652.4 583.0,652.1 583.1,652.0 583.3,652.0 583.4,652.2 583.1,652.9 582.6,654.2 582.5,654.5 582.6,655.0 583.9,656.3 584.4,656.7 584.9,657.2 585.3,657.4 585.6,657.4 586.4,657.4 587.1,657.1 587.5,656.7 587.6,656.1 587.7,655.7 587.8,655.6 588.2,655.5 588.4,655.5 589.4,655.8 589.7,655.8 590.2,655.5 590.7,654.7 590.9,653.0 591.4,651.0 591.3,650.5 590.9,650.1 590.9,649.3 591.0,649.0 591.1,648.7 591.3,647.7 591.7,647.4 592.0,647.3 592.0,646.2 592.0,645.8 592.0,644.8 592.0,644.4 592.0,643.7 592.0,642.8 592.2,642.7 592.7,642.4 593.1,642.5 593.6,643.2 594.1,644.3 594.4,644.9 594.4,645.7 594.6,646.4 595.0,647.5 595.7,648.5 595.8,649.8 595.9,650.1 595.7,650.7 595.5,650.9 595.5,651.0 595.6,651.2 595.4,651.4 595.0,651.6 594.7,651.9 594.5,652.3 594.7,652.8 594.9,653.1 595.0,653.4 596.0,653.6 596.5,654.0 597.0,654.1 597.3,654.0 597.6,654.0 597.9,653.8 598.4,653.9 599.2,654.6 599.5,654.7 600.2,654.5 600.5,653.9 600.7,653.6 600.9,653.6 601.2,653.7 601.7,654.0 602.3,654.9 602.9,655.6 603.5,655.9 603.8,656.0 604.2,655.9 604.5,655.0 604.8,654.7 605.0,654.8 605.5,655.7 605.7,656.1 605.9,656.1 606.0,656.1 606.2,655.9 606.3,655.2 606.5,654.8 606.4,654.4 606.5,654.3 606.7,654.2 607.1,654.5 607.5,655.0 607.7,655.0 607.7,654.7 607.7,654.3 607.8,654.0 607.9,653.9 607.7,653.6 607.0,653.0 606.6,652.5 606.6,652.1 606.8,651.9 607.6,651.9 608.4,652.4 610.0,653.5 611.2,654.7 612.7,656.6 613.6,657.7 613.7,657.9 613.9,657.9 614.0,657.7 614.1,657.5 614.3,657.4 614.6,657.4 614.8,657.2 615.4,657.2 616.1,657.8 617.1,658.1 617.3,658.3 617.5,658.4 618.0,658.5 618.5,659.2 619.2,660.3 620.2,661.6 621.3,662.8 622.4,663.9 623.8,665.2 625.1,666.2 626.2,667.1 627.1,667.8 627.9,668.5 628.6,668.9 630.0,669.3 632.6,671.9 633.5,672.3 634.1,672.7 633.8,673.8 635.1,673.9 636.4,673.4 636.9,674.2 637.3,675.2 637.4,677.0 638.2,678.2 639.1,678.9 640.7,677.9 641.8,677.6 643.5,678.5 644.7,679.2 646.2,679.7 646.3,680.5 646.0,681.3 646.5,681.9 647.4,682.1 653.2,686.2 656.3,686.4 660.1,686.9 664.6,688.3 670.5,690.3 676.5,693.5 680.1,695.5 682.9,696.4 687.6,698.4 695.0,702.8 703.0,707.7 706.9,710.3 708.2,713.9 708.6,716.4 709.1,721.3 708.3,734.8 708.3,742.2 709.6,747.0 713.6,750.8 707.2,749.9 698.7,749.2 689.8,748.7 682.0,750.0 676.9,750.4 671.7,750.4 668.1,750.1 667.4,750.0 665.5,749.5 661.4,749.2 657.4,749.1 654.6,748.8 652.5,748.6 650.8,749.5 647.3,751.7 644.5,754.2 641.1,754.2 638.1,754.4 633.9,753.5 627.1,746.5 620.0,746.7 616.3,747.1 613.8,748.1 610.6,749.6 606.1,752.7 603.8,754.5 600.4,756.0 598.0,757.4 596.2,758.2 594.1,759.0 591.5,759.9 586.4,762.4 584.4,764.3 582.8,765.1 581.2,764.2 574.7,762.0 572.4,761.4 569.9,761.0 566.8,760.3 553.8,758.8 550.5,758.4 544.3,756.2 541.9,755.0 539.3,753.5 537.1,751.4 535.8,749.2 531.7,744.1 528.0,741.4 522.0,737.0 517.5,733.5 514.0,731.5 505.5,726.0 504.1,724.5 502.1,721.9 499.7,722.3 496.5,722.9 492.7,724.0 489.8,725.4 487.6,727.2 484.5,731.8 480.3,735.7 477.8,736.8 473.9,737.4 472.1,737.7 469.0,737.9 467.0,737.7 464.5,737.0 461.1,735.9 456.6,734.0 454.0,732.9 451.3,732.0 449.0,730.7 447.0,729.8 444.7,727.4 443.0,725.4 441.1,723.6 438.1,720.4 435.6,716.9 431.7,711.5 430.9,710.4 429.2,709.7 425.9,710.2 421.1,710.8 419.2,710.6 413.5,709.2 409.2,707.0 407.6,705.7 407.0,703.9 406.5,700.2 406.0,692.2 405.4,684.8 405.3,682.9 405.1,677.3 404.6,675.2 403.3,672.5 402.6,668.7 402.1,664.6 402.2,663.9 402.3,661.0 402.4,660.2 402.2,658.4 403.0,653.7 403.6,652.8 405.4,651.0 406.8,649.5 407.3,648.2 406.9,645.2 407.1,643.4 407.3,641.5 407.5,640.0 407.9,637.9 408.1,636.4 408.8,635.2 409.0,635.0 410.2,633.1 411.5,631.3 413.6,628.9 415.0,627.7 416.8,626.9 417.9,626.2 418.3,625.5 417.7,623.7 417.3,621.8 417.3,620.8 417.8,619.2 419.0,618.7 419.8,618.2 420.2,617.4 420.3,616.5 420.0,615.1 420.1,614.6 420.3,613.8 421.3,612.4 424.0,610.5 425.9,607.4 426.3,603.9 425.7,601.7 425.3,601.0 424.5,598.2 424.1,596.7 423.7,594.6 423.7,594.3 423.5,591.5 422.6,589.7 422.6,589.6 422.1,588.7 421.5,587.6 421.4,587.0 421.4,586.7 421.5,586.3 422.5,584.9 422.3,584.2 421.8,583.5 421.3,582.5 420.8,581.2 420.3,580.2 419.8,579.2 419.4,578.3 419.5,577.4 419.8,576.4 419.8,575.3 419.0,574.3" fill="none" stroke="red" stroke-width="3" />
    <title>Basin 14</title>
  </a>
</svg>
