<svg viewBox="0 0 1500 1500" xmlns="http://www.w3.org/2000/svg" id="basin13">
  <a xlink:href="" class="map-highlight">
    <polygon points="665.7,312.5 665.8,312.4 665.9,312.2 665.9,312.1 666.0,311.7 666.2,311.5 666.3,311.4 666.4,311.3 666.8,311.0 666.9,310.8 667.2,310.5 667.6,310.4 668.5,310.2 668.8,310.2 668.9,310.1 669.1,310.2 669.3,310.4 669.4,310.6 669.4,311.0 669.2,311.8 669.2,312.1 669.3,312.5 669.5,313.0 669.8,313.4 670.0,313.5 670.2,313.7 670.4,313.7 670.7,313.6 670.8,313.6 670.8,313.6 670.9,313.7 671.0,313.7 671.3,313.7 671.7,313.7 671.9,313.5 672.2,313.3 672.4,313.2 672.4,313.2 672.5,313.2 672.6,313.3 672.7,313.3 672.8,313.3 672.9,313.3 673.3,313.2 673.3,313.3 673.5,313.3 673.7,313.2 673.8,313.2 674.0,313.3 674.2,313.1 674.3,313.2 674.4,313.3 674.5,313.5 674.6,313.6 674.6,313.8 674.7,313.8 674.7,313.8 674.9,313.9 675.1,313.8 675.3,313.8 675.5,314.0 675.9,314.4 676.4,314.7 677.0,315.2 677.2,315.3 677.4,315.4 677.6,315.4 677.7,315.6 677.8,315.7 677.8,316.2 677.6,317.3 677.5,317.4 677.4,317.5 677.3,317.7 677.1,318.1 676.9,318.6 676.9,319.0 676.9,319.3 676.9,319.6 677.0,319.9 677.1,320.0 677.4,320.1 677.8,320.1 678.1,320.1 678.5,320.0 678.8,320.0 678.9,319.9 679.2,319.9 679.3,319.9 679.4,320.0 679.5,320.3 679.7,320.5 680.0,320.8 680.0,321.3 680.0,321.8 680.3,322.6 680.5,322.7 680.6,322.7 680.7,323.0 680.8,323.1 680.9,323.1 681.0,323.1 681.0,323.0 681.1,323.0 681.2,323.0 681.2,323.2 681.0,323.8 681.0,324.1 680.8,324.7 680.7,325.2 680.7,325.6 680.6,325.8 680.7,325.9 680.7,326.0 680.9,326.2 681.1,326.4 681.4,326.4 681.9,326.5 682.1,326.5 682.4,326.4 682.5,326.4 682.8,326.2 683.0,326.0 683.1,326.0 683.2,325.8 683.3,325.3 683.3,325.2 683.4,325.0 683.4,324.8 683.5,324.4 683.7,323.8 684.2,322.8 684.3,322.7 684.4,322.7 684.6,322.9 684.8,323.2 685.0,323.6 685.1,323.7 685.0,324.0 685.0,324.1 685.0,324.3 685.0,324.4 685.0,324.5 685.1,324.6 685.2,324.6 685.3,324.6 685.7,324.6 685.9,324.5 686.1,324.5 686.3,324.5 686.3,324.5 687.0,324.3 687.2,324.2 687.2,324.1 687.5,323.9 687.6,323.7 687.9,323.3 688.0,323.0 688.0,322.8 688.0,322.7 687.9,322.5 687.8,322.3 687.2,321.6 686.7,320.7 686.6,320.5 686.6,320.4 686.6,319.7 686.3,318.6 686.3,318.5 686.4,318.0 686.4,317.9 686.4,317.8 686.5,317.8 686.6,317.8 686.8,317.7 686.9,317.6 687.0,317.5 687.1,317.4 687.1,317.3 686.9,317.1 686.7,316.8 686.7,316.7 686.7,316.7 686.7,316.6 687.0,316.4 687.0,316.4 687.1,316.2 687.1,316.0 687.3,315.8 687.3,315.7 687.3,315.6 687.4,315.5 687.3,315.2 687.3,315.1 687.5,314.8 687.5,314.6 687.2,312.6 687.1,312.3 686.9,312.1 686.4,311.4 686.1,310.8 685.9,310.7 685.4,310.4 685.4,310.3 684.9,309.8 684.6,309.4 684.2,308.7 684.1,308.5 684.1,308.3 684.1,308.0 683.9,307.4 683.7,306.9 683.8,306.7 683.8,306.2 683.9,305.8 684.1,305.7 684.3,305.6 684.5,305.5 685.2,305.0 685.7,304.7 686.9,304.2 687.3,304.1 687.5,304.1 687.8,304.1 687.9,304.1 688.5,304.3 688.6,304.2 688.8,304.3 689.2,304.5 689.4,304.5 689.6,304.6 689.6,304.8 689.7,304.9 690.1,305.0 690.3,305.0 690.5,304.9 690.6,305.0 690.8,305.1 690.8,305.1 691.2,305.4 691.3,305.5 691.4,305.4 691.8,305.7 692.0,305.9 692.2,306.1 692.4,306.1 692.6,306.1 692.8,306.1 692.9,306.0 693.3,305.5 693.5,305.3 693.6,305.1 693.6,304.9 693.6,304.7 693.6,304.5 693.7,304.3 693.7,304.3 693.6,304.2 693.6,304.1 693.7,304.0 693.8,303.9 693.9,303.7 694.0,303.6 694.0,303.5 694.0,303.3 694.1,303.2 694.1,303.0 694.1,302.9 694.1,302.7 694.1,302.6 694.2,302.4 694.5,302.2 694.7,302.0 695.3,301.6 695.8,301.3 696.2,301.2 696.5,301.1 696.8,301.0 697.2,300.9 697.4,300.8 697.5,300.8 697.6,301.1 697.4,301.5 697.4,302.0 697.5,302.4 697.8,303.5 697.5,304.6 696.6,307.2 695.5,308.9 694.0,311.3 693.2,312.0 693.0,312.0 693.0,312.4 692.4,314.3 692.1,316.9 691.8,318.9 692.3,320.0 692.9,320.9 694.0,321.9 695.6,324.5 696.8,327.3 698.1,329.1 698.8,329.9 699.4,331.6 700.3,332.8 700.8,333.6 700.8,334.7 700.5,336.7 700.5,338.1 701.0,339.1 701.7,339.2 703.4,339.3 704.3,339.4 704.9,339.9 704.9,340.5 704.6,342.2 704.3,344.0 703.8,345.3 703.7,346.3 704.7,351.3 705.9,353.1 709.4,355.1 710.7,356.6 710.7,359.1 710.1,362.7 710.0,365.1 710.5,366.1 711.5,368.0 712.7,370.1 713.5,373.1 715.2,375.9 716.8,376.9 720.8,377.5 721.8,378.5 724.0,381.3 727.2,384.5 730.5,387.3 734.1,390.0 738.2,392.5 740.9,393.5 737.9,393.7 734.4,396.4 729.5,400.8 718.0,413.7 704.5,426.3 696.0,434.4 692.4,438.2 690.2,440.1 686.9,443.7 685.8,445.0 678.0,449.3 672.9,451.7 670.4,453.8 664.5,459.2 657.6,462.3 652.4,463.9 646.8,464.4 642.9,464.2 639.8,463.6 636.9,463.1 634.7,462.6 632.8,462.3 631.0,462.6 629.1,463.4 625.2,465.5 622.6,467.9 620.0,469.5 617.3,471.5 615.7,472.9 613.2,476.0 610.7,478.8 607.6,483.8 605.7,487.8 603.1,494.3 601.4,499.9 599.6,503.5 599.0,504.9 598.9,507.1 598.4,510.9 598.4,512.4 597.0,513.3 594.1,515.3 591.6,516.3 590.3,516.8 589.6,516.5 589.6,516.2 589.4,515.9 589.7,515.4 589.1,515.1 588.9,514.7 588.9,514.5 589.1,514.2 588.8,514.3 588.9,514.2 589.1,514.0 589.1,513.8 589.1,513.7 588.9,513.4 589.0,513.4 589.3,513.5 589.3,513.4 589.3,513.3 589.2,513.3 589.2,513.2 589.1,512.7 589.2,512.6 589.2,512.4 589.4,512.3 589.4,512.2 589.3,512.1 589.2,512.1 589.2,512.0 589.1,511.9 589.1,511.8 589.0,511.7 588.9,511.6 588.9,511.5 588.8,511.4 588.7,511.4 588.7,511.3 588.6,511.1 588.4,510.9 588.3,510.8 588.2,510.7 588.2,510.6 588.2,510.3 588.1,510.2 588.0,510.0 588.0,509.9 587.9,509.8 587.8,509.6 587.7,509.5 587.6,509.4 587.6,509.2 587.6,509.2 587.5,508.8 587.4,508.6 587.4,508.5 587.3,508.5 587.2,508.3 587.2,508.2 587.2,508.0 587.5,507.6 587.5,507.5 587.8,507.0 588.0,506.7 588.1,506.6 587.9,506.6 587.8,506.5 587.7,506.6 587.6,506.5 587.2,506.5 587.1,506.5 587.1,506.3 587.0,506.3 586.9,506.2 586.9,506.2 586.8,506.1 586.7,506.0 586.6,505.9 586.6,505.8 586.7,505.6 586.6,505.6 586.5,505.5 586.6,505.2 586.6,505.2 586.6,504.8 586.8,504.8 587.0,504.6 587.3,504.6 587.3,504.7 587.4,504.7 587.4,504.4 587.5,504.4 587.7,504.5 587.7,504.4 587.7,504.3 587.6,504.1 587.5,504.1 587.5,504.0 587.6,504.0 587.6,503.9 587.7,503.8 587.6,503.8 587.2,503.6 587.2,503.5 587.1,503.2 587.1,503.1 587.0,502.8 587.0,502.7 586.9,502.6 586.9,502.6 586.8,502.5 586.8,502.1 586.9,501.9 587.0,501.7 587.0,501.3 587.0,501.0 587.0,500.9 587.0,500.8 586.9,500.7 586.9,500.7 586.8,500.6 586.7,500.4 586.6,500.3 586.7,500.0 586.6,499.9 586.7,499.8 586.6,499.6 586.6,499.6 586.5,499.5 586.5,499.4 586.4,499.4 586.4,499.2 586.4,499.1 586.3,498.9 586.4,498.9 586.3,498.8 586.3,498.7 586.3,498.5 586.5,498.2 586.4,498.2 586.5,497.9 586.5,497.9 586.5,497.7 586.8,497.5 586.8,497.3 586.8,497.1 586.9,496.8 587.0,496.6 587.0,496.6 587.1,496.6 587.1,496.4 587.2,496.3 587.1,496.1 587.0,496.1 587.1,495.9 587.0,495.8 587.0,495.7 587.2,495.5 587.1,495.2 587.1,495.1 587.1,495.0 587.0,494.9 587.0,494.7 586.9,494.6 586.9,494.5 586.9,494.5 586.9,494.1 586.8,493.8 586.8,493.8 586.9,493.7 587.0,493.5 587.1,493.4 587.1,493.3 587.2,493.0 587.2,492.9 587.2,492.8 587.3,492.9 587.4,492.8 587.4,492.7 587.5,492.6 587.5,492.5 587.5,492.4 587.5,492.3 587.6,492.2 587.6,492.1 587.6,492.0 587.9,491.7 588.0,491.7 588.1,491.8 588.2,491.8 588.5,491.6 588.6,491.3 588.6,490.8 588.5,490.7 588.5,490.4 588.5,490.4 588.4,490.3 588.4,490.2 588.4,489.8 588.3,489.7 588.4,489.3 588.4,489.0 588.5,488.8 588.6,488.7 588.7,488.2 588.8,488.2 588.8,487.9 589.0,487.8 589.0,487.7 589.1,487.5 589.2,487.4 589.6,487.1 589.8,487.1 590.0,487.1 590.0,487.1 590.1,487.0 590.2,487.0 590.2,487.1 590.3,487.1 590.6,487.1 590.6,487.1 590.9,487.1 591.1,487.2 591.3,487.2 591.3,487.1 591.8,487.0 591.9,486.5 592.4,486.0 592.4,485.9 592.4,485.8 592.3,485.7 592.2,485.5 592.2,485.5 592.1,485.4 592.1,485.3 592.0,485.2 592.0,485.1 591.9,485.1 591.8,484.9 591.8,484.9 591.7,484.7 591.7,484.6 591.6,484.5 591.5,484.5 591.5,484.2 591.4,484.1 591.4,484.1 591.4,483.7 591.3,483.6 591.3,483.5 591.2,483.4 591.2,483.1 591.2,482.9 591.1,482.9 591.1,482.7 591.2,482.6 591.2,482.3 591.2,482.3 591.3,482.0 591.5,481.7 591.6,481.4 591.7,481.2 591.8,481.1 591.8,480.9 591.9,480.5 592.0,480.4 592.1,479.9 592.5,479.6 592.5,479.4 592.7,479.2 592.9,479.1 593.0,479.0 593.0,478.8 593.2,478.7 593.2,478.6 593.3,478.5 593.3,478.4 593.3,478.2 593.5,477.9 593.5,477.8 593.6,477.7 593.6,477.5 594.0,476.9 594.0,476.6 593.9,476.5 593.9,476.3 594.1,476.1 594.0,476.0 594.0,475.8 594.1,475.7 594.1,475.4 594.0,475.4 594.0,475.3 593.9,475.3 593.9,475.2 593.9,475.1 594.0,475.2 594.0,475.0 594.0,474.9 593.9,474.9 593.9,474.4 594.0,474.2 594.1,474.1 594.1,474.0 594.0,473.9 594.0,473.9 593.8,473.8 593.8,473.7 593.8,473.5 593.8,473.4 593.8,473.1 593.9,473.0 594.0,472.6 594.2,472.4 594.1,472.2 594.1,472.1 594.0,472.0 594.0,471.6 594.0,471.6 594.0,471.5 594.3,471.0 594.4,470.7 594.4,470.6 594.9,470.1 595.0,469.9 595.2,469.7 595.4,469.7 595.4,469.6 595.6,469.4 595.7,469.3 595.7,469.1 595.8,469.1 595.8,469.0 595.7,468.9 595.7,468.8 595.8,468.7 595.7,468.6 595.7,468.4 595.7,468.3 595.7,468.2 595.6,468.1 595.5,468.1 595.4,468.0 595.3,467.8 595.4,467.7 595.4,467.6 595.4,467.5 595.3,467.4 595.5,467.1 595.7,466.9 595.7,466.6 595.7,466.4 595.7,466.2 595.7,465.9 595.8,465.7 596.0,465.5 596.1,465.2 596.3,465.0 596.3,464.8 596.4,464.6 596.4,464.4 596.5,464.3 596.5,464.2 596.5,464.1 596.5,464.0 596.5,463.9 596.5,463.7 596.7,463.4 596.7,463.0 596.8,462.9 597.0,462.7 597.2,462.3 597.5,462.2 597.6,461.9 597.7,461.7 598.5,461.4 598.6,461.1 598.8,461.0 598.9,460.7 598.9,460.5 599.3,460.2 599.5,459.8 599.7,459.2 599.9,458.9 599.9,458.8 599.8,458.7 600.1,458.5 600.1,458.4 600.3,458.3 600.2,458.2 600.4,458.1 600.5,457.6 600.7,457.4 600.8,457.4 601.1,457.5 601.3,457.4 601.6,456.9 601.6,456.6 601.6,456.5 601.6,456.3 601.6,456.2 601.9,455.9 602.0,455.7 602.0,455.5 602.5,455.0 603.1,454.9 603.3,454.6 603.5,454.6 603.6,454.5 603.8,454.4 603.9,453.9 603.9,453.6 604.0,453.6 604.0,453.5 603.8,453.4 603.8,453.4 603.8,453.3 603.7,453.2 603.7,453.2 603.8,452.7 604.0,452.5 604.2,452.6 604.4,452.5 604.5,452.6 604.5,452.5 604.5,452.0 604.5,451.9 604.5,451.8 604.4,451.7 604.4,451.6 604.3,451.5 604.3,451.4 604.3,451.3 604.4,451.3 604.5,451.3 604.6,451.2 604.7,451.1 604.7,450.8 604.7,450.8 604.9,450.5 604.9,450.3 605.1,450.1 605.2,449.8 605.2,449.5 605.3,449.4 605.4,449.2 605.5,449.0 605.8,448.8 606.0,448.6 606.0,448.4 606.0,448.2 606.0,448.1 606.1,447.9 606.1,447.7 606.1,447.6 606.2,447.2 606.4,447.1 606.6,446.9 606.8,446.7 606.9,446.6 607.0,446.6 607.2,446.4 607.4,446.2 607.4,446.1 607.4,446.0 607.5,445.9 607.5,445.8 607.5,445.8 607.6,445.7 607.7,445.5 607.8,445.3 607.9,445.3 608.0,445.4 608.1,445.4 608.2,445.4 608.5,445.3 608.6,445.1 608.7,445.0 608.8,445.0 609.0,444.8 609.1,444.7 609.6,444.4 609.6,444.4 609.8,444.3 609.9,444.2 610.0,444.1 610.0,443.8 610.0,443.6 610.1,443.4 610.4,443.1 610.5,442.9 610.6,442.9 610.8,442.8 610.9,442.7 611.1,442.5 611.3,442.4 611.5,442.1 611.6,442.0 611.6,441.8 611.7,441.7 611.8,441.5 611.8,441.5 611.9,441.4 612.0,441.3 612.0,441.1 612.2,441.1 612.4,440.9 612.8,440.6 613.0,440.4 613.1,440.2 613.2,440.1 613.4,440.0 613.5,440.0 613.6,439.9 613.7,439.6 613.7,439.6 613.8,439.6 613.9,439.5 614.0,439.6 614.1,439.5 614.4,439.3 614.6,439.2 614.7,439.2 614.7,439.1 614.8,439.1 614.9,439.1 615.1,439.1 615.3,439.1 615.4,438.9 615.7,438.7 616.0,438.5 616.2,438.3 616.3,438.3 616.4,438.2 616.7,438.0 616.9,438.0 617.0,437.9 617.1,437.8 617.2,437.6 617.4,437.4 617.6,437.4 617.7,437.3 617.9,437.1 617.9,436.9 617.9,436.9 617.9,436.8 618.1,436.7 618.2,436.7 618.2,436.5 618.2,436.4 618.2,436.4 618.3,436.3 618.6,436.1 618.7,436.1 618.7,436.0 618.9,436.0 619.2,435.9 619.2,435.9 619.3,436.0 619.4,436.0 619.6,435.9 619.7,435.8 619.7,435.7 619.9,435.4 620.0,435.1 620.2,434.9 620.3,434.9 620.3,434.9 620.4,434.9 620.5,434.8 620.6,434.8 620.6,434.4 620.5,434.3 620.4,434.3 620.5,434.1 620.6,434.0 620.7,434.0 620.7,434.1 620.8,434.1 620.9,434.1 621.0,433.9 621.1,433.9 621.4,433.9 621.4,433.8 621.5,433.8 621.6,433.6 622.0,433.3 622.0,433.2 622.1,433.3 622.2,433.3 622.3,433.5 622.3,433.6 622.4,433.6 622.3,434.0 621.9,434.3 622.4,434.4 623.2,434.2 623.6,434.1 623.9,434.0 624.3,433.8 624.7,433.7 625.0,433.6 625.1,433.5 625.1,433.2 625.1,433.0 625.5,432.7 625.9,432.5 626.3,432.5 626.4,432.6 627.0,432.7 627.4,432.8 627.7,432.6 627.9,432.5 628.1,432.4 628.2,432.4 628.3,432.4 628.3,432.2 628.2,432.1 628.1,432.0 628.1,431.7 628.1,431.6 628.2,431.5 628.2,431.5 628.1,431.3 628.2,431.3 628.2,431.2 628.5,430.9 628.6,430.6 628.6,430.5 628.8,430.4 628.8,430.3 628.9,430.3 629.0,430.3 629.1,430.3 629.2,430.3 629.3,430.2 629.3,430.1 629.4,429.9 629.4,429.7 629.4,429.5 629.4,429.4 629.5,429.4 629.6,429.5 629.7,429.5 629.8,429.6 630.0,429.6 630.1,429.6 630.2,429.5 630.2,429.5 630.1,429.3 629.8,429.2 629.6,429.0 629.5,428.9 629.4,428.6 629.4,428.5 629.2,428.4 629.1,428.3 629.1,428.2 629.1,428.1 629.1,427.9 629.1,427.8 629.2,427.7 629.6,427.2 629.8,426.9 629.9,426.8 630.0,426.7 630.1,426.5 630.2,426.3 630.3,426.2 630.4,426.1 630.6,426.1 630.6,426.1 630.6,426.2 630.8,426.4 630.9,426.5 631.1,426.5 631.2,426.5 631.4,426.4 631.6,426.3 631.7,426.1 631.9,426.0 632.1,425.9 632.4,426.1 632.6,426.1 632.8,426.1 633.1,426.1 633.4,426.3 634.0,426.4 634.2,426.5 634.5,426.4 634.7,426.3 634.7,426.2 634.6,426.0 634.6,426.0 634.7,425.8 634.8,425.6 634.8,425.6 634.8,425.5 634.8,425.3 634.8,425.3 634.8,425.2 635.0,425.3 635.0,425.3 635.1,425.4 635.2,425.5 635.2,425.5 635.4,425.6 635.4,425.7 635.6,425.8 635.9,425.8 636.0,425.7 636.2,425.7 636.3,425.6 636.3,425.4 636.4,425.3 636.6,425.3 636.7,425.3 636.8,425.2 636.8,424.9 636.8,424.9 636.7,424.7 636.7,424.6 636.7,424.5 636.5,424.4 636.5,424.3 636.5,424.2 636.6,424.2 636.7,424.2 636.8,424.1 636.9,424.1 637.0,424.1 637.1,424.1 637.2,424.1 637.6,424.0 637.8,423.9 637.9,423.7 638.1,423.6 638.1,423.6 638.2,423.5 638.3,423.4 638.5,423.3 638.6,423.2 638.6,423.1 638.5,423.0 638.3,422.9 638.2,422.9 638.0,422.9 637.9,422.8 637.8,422.7 637.9,422.7 638.0,422.6 638.2,422.6 638.4,422.7 638.8,422.7 638.9,422.7 638.9,422.8 639.3,422.6 639.4,422.6 639.7,422.4 639.7,422.3 639.8,422.3 639.9,422.3 640.1,422.2 640.2,422.2 640.2,422.0 640.2,421.6 640.1,421.5 640.0,421.3 639.9,421.3 639.9,421.1 639.7,420.8 639.5,420.7 639.1,420.4 638.8,420.2 638.6,420.1 638.6,420.0 638.5,419.9 638.4,419.8 638.5,419.6 638.7,419.5 638.7,419.4 638.8,419.3 638.7,419.2 638.5,419.0 638.4,418.9 638.2,418.9 638.0,418.9 637.9,418.7 637.8,418.6 637.8,418.6 637.7,418.6 637.6,418.6 637.6,418.6 637.4,418.6 637.3,418.6 637.1,418.5 636.8,418.4 636.7,418.4 636.7,418.3 636.7,418.1 636.8,417.9 636.9,417.9 637.1,417.8 637.3,417.6 637.3,417.4 637.3,417.3 637.3,417.0 637.3,417.0 637.3,416.9 637.2,416.8 637.2,416.5 637.1,416.2 637.1,416.1 637.2,416.1 637.3,416.1 637.3,416.1 637.5,416.0 637.6,415.9 637.7,415.6 637.7,415.5 637.8,415.3 637.8,415.2 637.8,415.1 637.8,415.0 637.8,415.0 637.8,414.8 637.8,414.7 637.8,414.6 637.7,414.5 637.6,414.4 637.6,414.3 637.5,414.1 637.4,414.1 637.4,414.0 637.2,414.0 637.2,413.8 637.1,413.7 637.1,413.6 637.1,413.5 637.2,413.4 637.2,413.3 637.2,413.2 637.2,413.0 637.0,412.8 636.7,412.6 636.7,412.4 636.7,412.3 636.7,412.2 636.7,412.1 636.9,412.1 637.2,412.1 637.3,412.1 637.4,412.0 637.4,411.9 637.6,411.8 637.7,411.7 637.9,411.6 637.9,411.7 638.1,411.6 638.2,411.6 638.2,411.4 638.2,411.3 638.2,411.3 638.2,411.2 638.2,411.0 638.2,411.0 638.2,410.9 638.4,410.7 638.6,410.6 638.6,410.4 638.6,410.3 638.6,410.2 638.4,410.1 638.4,410.0 638.3,409.8 638.3,409.7 638.2,409.7 638.1,409.7 638.1,409.6 638.1,409.5 638.0,409.4 638.1,409.4 638.2,409.4 638.3,409.4 638.4,409.3 638.5,409.1 638.5,409.0 638.5,408.6 638.6,408.6 638.7,408.5 638.7,408.4 638.6,408.3 638.6,408.2 638.7,408.0 638.6,407.9 638.6,407.8 638.7,407.7 638.9,407.5 638.9,407.4 638.9,407.2 639.1,407.1 639.1,407.0 639.3,406.8 639.4,406.6 639.3,406.4 639.2,406.3 639.0,406.2 638.8,406.0 638.9,406.0 638.9,405.8 638.9,405.7 638.8,405.5 638.7,405.3 638.4,405.2 638.2,405.1 638.2,405.0 638.2,404.9 638.2,404.7 638.0,404.5 637.8,404.4 637.7,404.4 637.7,404.1 637.7,404.1 637.7,404.0 637.5,403.8 637.4,403.8 637.4,403.6 637.4,403.6 637.5,403.6 637.6,403.6 637.7,403.6 637.8,403.6 637.9,403.5 638.0,403.4 638.1,403.4 638.2,403.3 638.4,403.2 638.4,403.2 638.5,403.0 638.5,402.4 638.5,402.3 638.8,402.2 638.9,402.0 639.0,401.7 638.9,401.3 638.9,401.2 638.7,400.8 638.7,400.7 638.7,400.5 638.8,400.3 638.8,400.1 638.7,399.9 638.6,399.8 638.6,399.7 638.5,399.6 638.4,399.6 638.3,399.5 638.2,399.4 638.1,399.4 638.1,399.3 638.1,399.2 638.1,399.1 638.2,399.0 638.3,398.9 638.3,398.8 638.3,398.7 638.2,398.6 638.1,398.6 638.1,398.4 637.9,398.0 637.9,397.7 637.9,397.1 638.4,396.7 638.5,396.6 638.6,396.4 638.7,396.4 638.9,396.4 639.0,396.3 639.1,396.3 639.2,396.2 639.4,396.0 639.7,395.9 639.8,395.8 640.1,395.7 640.1,395.7 640.4,395.6 640.9,395.5 641.4,395.3 641.5,395.2 641.7,395.2 642.0,395.1 642.2,395.1 642.2,395.0 642.2,394.8 642.1,394.6 642.2,394.6 642.4,394.5 642.5,394.4 642.5,394.4 642.8,394.2 642.9,394.2 643.0,394.2 643.1,394.3 643.3,394.4 643.7,394.5 644.2,394.6 644.3,394.5 644.5,394.5 644.9,394.6 645.3,394.5 645.6,394.4 646.0,394.4 646.1,394.4 646.4,394.3 646.9,394.3 647.0,394.4 647.0,394.5 647.1,394.6 648.0,395.1 648.2,395.1 648.4,395.1 648.5,395.1 648.7,395.0 649.0,394.8 649.2,394.5 649.2,394.2 649.4,393.8 649.5,393.8 649.9,393.6 650.3,393.4 650.4,393.3 650.4,393.1 650.3,393.0 650.1,393.0 650.1,392.8 650.1,392.6 650.3,392.5 650.4,392.4 650.5,392.3 650.6,392.3 650.7,392.3 650.7,392.2 650.7,392.0 650.7,391.6 650.6,391.5 650.6,391.4 650.6,391.3 650.5,391.3 650.5,391.1 650.5,391.0 650.5,390.8 650.5,390.6 650.5,390.5 650.4,390.3 650.2,389.9 650.1,389.8 649.8,389.8 649.5,389.6 648.9,389.6 648.6,389.6 648.5,389.6 648.4,389.5 648.3,389.4 648.2,389.3 648.2,389.2 648.2,388.9 648.3,388.6 648.5,388.5 648.6,388.6 648.6,388.6 648.7,388.7 648.8,388.7 648.9,388.6 649.0,388.6 649.1,388.6 649.2,388.6 649.4,388.7 649.7,388.7 650.2,388.6 650.3,388.6 650.5,388.3 650.6,388.2 650.6,388.1 650.6,387.8 651.1,387.0 651.1,387.0 651.3,386.6 651.4,386.5 651.7,385.8 651.7,385.5 651.7,385.3 651.6,385.2 651.7,385.0 651.7,384.9 651.8,384.6 651.8,384.5 652.1,384.1 652.3,384.1 652.5,383.9 652.7,383.7 652.9,383.4 653.0,383.3 653.2,383.1 653.3,383.0 653.3,382.7 653.4,382.4 653.6,382.1 653.6,381.9 653.6,381.5 653.5,381.1 653.5,380.9 653.3,380.7 653.2,380.5 652.9,380.4 652.5,380.4 652.2,380.5 652.0,380.6 651.8,380.5 651.5,380.6 651.5,380.7 651.2,380.7 650.9,380.8 650.2,381.1 649.4,381.5 649.2,381.6 648.4,382.3 647.8,382.9 647.3,383.6 647.0,384.1 646.5,384.6 646.0,385.0 645.2,385.3 644.6,385.6 644.4,385.7 644.1,385.6 643.9,385.6 643.9,385.6 643.0,385.5 642.8,385.4 642.7,385.3 642.6,385.0 642.5,384.9 642.5,384.9 642.3,384.9 642.1,385.0 641.9,385.0 641.8,385.0 641.8,385.0 641.6,384.9 641.5,385.0 641.2,385.1 640.9,385.1 640.8,385.1 640.6,385.0 640.5,384.8 640.4,384.6 640.5,384.5 640.5,384.4 640.6,384.4 640.7,384.5 640.8,384.6 640.8,384.6 640.9,384.7 641.1,384.7 641.4,384.7 641.6,384.8 641.6,384.7 641.7,384.6 641.8,384.4 641.8,384.3 642.0,384.2 642.2,384.0 642.3,383.8 642.5,383.7 642.6,383.6 642.9,383.5 643.2,383.2 643.4,383.1 643.6,383.1 643.8,383.0 644.1,382.8 644.2,382.7 644.3,382.6 644.4,382.4 644.6,382.1 644.5,381.8 644.1,381.4 643.7,381.1 643.3,381.0 642.9,381.0 642.3,380.9 641.8,380.8 641.5,380.9 641.3,380.9 641.1,381.0 640.7,381.3 640.3,381.4 640.1,381.4 639.6,381.1 639.3,381.0 639.1,380.9 638.9,380.7 638.8,380.4 638.8,380.1 638.7,379.9 638.7,379.7 638.5,379.3 638.4,378.8 638.4,378.8 638.4,378.5 638.3,378.5 638.3,378.3 638.3,378.1 638.2,378.0 638.3,377.9 638.3,377.6 638.3,377.4 638.3,377.3 638.3,377.2 638.2,377.1 638.1,376.9 638.1,376.6 638.1,376.4 638.1,376.3 638.1,376.2 638.1,376.0 638.2,375.6 638.2,375.5 638.2,375.3 638.3,375.2 638.3,374.8 638.4,374.6 638.4,374.5 638.4,374.3 638.6,374.2 638.7,374.1 638.8,374.0 638.8,373.9 638.9,373.8 639.1,373.5 639.1,373.4 639.2,373.2 639.4,373.1 639.6,372.8 639.7,372.7 639.8,372.7 639.9,372.5 640.1,372.1 640.3,371.7 640.3,371.6 640.3,371.5 640.3,371.3 640.3,371.0 640.4,370.6 640.4,370.4 639.9,370.1 639.9,370.0 639.8,369.9 639.8,369.5 639.9,369.0 640.0,368.6 640.1,368.1 640.2,367.9 640.4,367.7 641.3,366.7 641.4,366.6 641.7,366.1 641.9,366.0 642.2,366.0 642.4,366.1 642.6,366.1 642.8,366.1 643.2,365.9 643.7,365.6 643.7,365.4 643.7,365.2 643.8,365.1 643.8,365.1 643.7,365.0 643.6,364.9 643.7,364.8 643.9,364.7 644.0,364.7 644.1,364.7 644.2,364.7 644.4,364.7 644.5,364.6 644.7,364.5 644.9,364.5 645.2,364.5 645.5,364.5 645.5,364.4 645.4,364.3 645.4,364.2 645.5,364.2 645.6,364.1 645.7,364.1 645.9,364.1 646.1,364.1 646.4,364.2 646.8,364.4 647.0,364.4 647.3,364.4 647.8,364.5 648.0,364.7 648.2,364.9 648.6,365.3 648.8,365.5 648.9,365.5 649.1,365.5 649.2,365.4 649.3,365.3 649.4,365.3 649.7,365.4 649.9,365.4 650.2,365.4 650.5,365.1 650.5,364.7 651.1,364.6 651.2,364.7 651.5,364.7 651.7,364.7 651.7,364.7 651.9,364.9 652.2,364.7 652.2,364.6 652.2,364.1 652.3,363.7 652.2,363.5 652.1,363.5 651.9,363.5 651.8,363.5 651.5,363.4 651.5,363.3 651.4,363.0 651.5,362.7 651.5,361.8 651.4,361.7 651.3,361.5 651.4,361.4 651.5,361.3 651.6,361.4 651.7,361.5 651.8,361.4 651.7,361.1 651.6,360.9 651.5,360.7 651.0,360.3 650.9,360.2 650.8,360.2 650.7,360.1 650.4,359.6 649.9,359.5 649.8,359.4 649.7,359.2 649.7,359.1 649.4,358.8 648.8,358.5 648.8,358.4 648.7,358.1 648.6,357.9 648.7,357.8 648.6,357.6 648.2,357.2 647.8,356.9 647.7,356.8 647.3,356.8 647.2,356.7 647.0,356.6 647.0,356.4 647.0,356.2 647.1,356.1 647.1,356.0 647.6,356.0 648.0,355.9 648.0,355.9 648.2,355.8 648.3,355.8 648.5,355.9 648.8,355.9 649.1,355.8 650.0,356.2 650.1,356.4 650.3,356.4 650.4,356.6 650.6,356.6 650.7,356.7 650.9,356.8 651.2,356.9 651.5,356.8 652.0,356.7 652.5,356.8 652.6,356.9 652.7,357.0 652.9,357.2 653.1,357.6 653.3,357.7 653.6,357.7 654.3,357.1 655.2,356.3 655.4,356.0 655.8,355.1 656.0,354.8 656.1,354.6 656.3,354.3 656.5,353.8 656.6,353.6 656.7,353.5 656.8,353.2 656.6,352.7 656.7,352.4 657.1,351.8 658.0,350.9 658.1,350.6 658.5,350.4 658.6,350.4 658.7,350.1 659.1,349.8 659.6,349.7 659.8,349.6 660.3,349.3 660.4,349.0 660.6,348.9 660.9,348.7 661.2,348.4 661.4,348.3 662.5,347.8 662.9,347.5 663.3,347.2 663.3,347.1 664.1,346.5 664.7,346.2 665.3,345.9 665.5,345.8 665.7,345.8 665.8,345.6 665.9,345.5 665.9,345.2 666.0,344.8 666.0,344.6 666.3,344.1 666.3,343.9 666.3,343.7 666.2,343.4 666.3,343.1 666.3,342.9 666.2,342.4 666.1,342.2 665.8,342.1 665.7,342.1 665.5,342.3 665.4,342.4 665.3,342.5 665.3,342.7 665.3,342.8 665.2,342.8 665.3,342.5 665.2,342.5 665.2,342.4 665.3,342.2 665.5,341.8 665.5,341.7 665.4,341.6 665.6,341.4 665.6,341.3 665.9,340.8 665.9,340.6 666.0,340.5 666.0,340.4 665.9,340.2 666.1,340.0 666.1,339.6 666.1,339.4 666.2,339.0 666.2,338.9 666.1,338.7 666.2,338.5 666.2,338.2 666.2,338.0 666.2,337.8 666.2,337.4 666.2,337.3 666.0,337.3 665.9,337.2 665.9,337.0 665.9,336.8 666.1,336.8 666.3,336.6 666.4,336.5 666.5,336.4 666.5,336.2 666.5,336.0 666.7,335.7 666.7,335.3 666.8,335.0 666.8,334.3 666.8,334.0 666.7,333.8 666.5,333.6 666.4,333.4 666.3,333.2 666.3,333.1 666.4,333.0 666.3,332.9 666.3,332.6 666.5,332.2 666.5,332.2 666.5,332.1 666.4,332.0 666.4,332.0 666.3,332.0 666.2,332.1 665.9,332.4 665.8,332.4 665.8,332.3 666.0,331.9 666.1,331.7 666.3,331.4 666.3,331.1 666.2,330.9 666.0,330.5 666.0,330.3 665.7,329.8 665.6,329.7 665.4,329.6 665.2,329.7 664.8,329.7 664.6,329.8 664.3,330.1 664.1,330.2 663.8,330.3 662.9,330.7 662.6,330.8 662.0,330.9 661.4,330.8 660.3,330.4 660.0,330.2 659.6,330.0 659.4,330.0 658.8,329.9 658.1,329.8 657.5,329.5 657.4,329.4 657.2,329.3 656.6,329.2 656.4,329.0 656.4,328.9 656.2,328.7 656.2,328.6 656.0,328.5 656.0,328.4 655.9,328.3 655.9,328.1 655.7,327.9 655.6,327.8 655.6,327.7 655.5,327.6 655.5,327.6 655.3,327.4 655.3,327.3 655.2,327.1 655.1,326.9 655.0,326.8 655.0,326.7 655.0,326.6 654.8,326.5 654.8,326.4 654.6,326.2 654.6,326.1 654.5,326.0 654.5,325.9 654.4,325.8 654.2,325.4 654.2,325.3 654.1,325.2 654.1,325.1 654.0,325.0 654.0,324.9 653.9,324.8 653.9,324.7 653.9,324.6 653.9,324.5 653.8,324.5 653.8,324.4 653.8,324.1 653.8,324.0 653.7,323.8 653.8,323.6 653.7,323.5 653.8,323.4 653.8,323.2 653.8,323.0 653.9,322.8 654.0,322.7 654.0,322.4 654.3,322.0 654.8,321.7 655.4,321.6 655.9,321.2 656.2,320.7 656.6,320.3 657.2,320.2 657.8,320.2 658.0,320.3 658.3,320.4 658.4,320.3 658.5,320.2 658.6,320.3 658.4,320.7 658.3,321.1 658.3,321.7 658.5,322.3 658.8,322.9 659.3,323.1 660.2,323.0 661.1,322.8 661.4,322.8 661.7,323.0 662.1,323.4 662.3,323.5 662.4,323.7 662.7,323.8 662.9,324.1 663.2,324.6 663.8,325.5 664.3,325.9 665.0,326.0 665.3,326.0 665.6,326.0 665.8,325.9 665.9,325.8 666.1,325.3 666.3,324.9 666.5,324.7 666.7,324.5 666.8,324.4 666.7,324.0 666.5,323.7 666.4,323.6 666.4,323.4 666.2,323.3 666.1,323.1 665.9,322.9 665.5,322.3 665.4,322.1 665.4,321.6 665.5,320.5 665.8,319.5 666.2,318.8 666.9,318.1 667.4,317.7 667.7,317.5 667.9,317.3 668.0,317.2 668.1,317.1 668.2,316.9 668.4,316.7 668.6,316.4 668.8,316.1 668.9,316.0 669.1,315.8 669.2,315.6 669.3,315.4 669.4,315.2 669.4,315.0 669.5,314.9 669.5,314.7 669.4,314.4 669.2,314.1 669.1,313.9 668.7,313.7 668.5,313.6 668.4,313.5 668.2,313.4 668.0,313.3 667.6,313.2 667.3,313.1 667.0,313.1 666.6,313.1 666.3,313.2 666.1,313.1 665.8,312.8 665.8,312.8 665.7,312.6 665.7,312.5" fill="none" stroke="red" stroke-width="3" />
    <title>Basin 13</title>
  </a>
</svg>
